<!-- Generated by IcoMoon.io -->
<svg version="1.1" xmlns="http://www.w3.org/2000/svg" width="32" height="32" viewBox="0 0 32 32">
<title>astronaut-1</title>
<path fill="#2196f3" d="M31.973 4.526c-0.059-0.192-0.229-0.334-0.43-0.366l-1.911-0.274-0.855-1.737c-0.178-0.361-0.777-0.361-0.955 0l-0.85 1.737-1.911 0.274c-0.262 0.038-0.46 0.261-0.46 0.53 0 0.151 0.063 0.287 0.163 0.385l0 0 1.385 1.344-0.325 1.902c-0.005 0.026-0.007 0.056-0.007 0.087 0 0.295 0.239 0.535 0.535 0.535 0.089 0 0.174-0.022 0.248-0.061l-0.003 0.001 1.71-0.896 1.705 0.896c0.072 0.039 0.158 0.062 0.25 0.062 0.295 0 0.535-0.239 0.535-0.535 0-0.032-0.003-0.063-0.008-0.093l0 0.003-0.329-1.902 1.385-1.349c0.146-0.137 0.197-0.352 0.137-0.549zM29.513 5.851c-0.128 0.123-0.183 0.297-0.155 0.471l0.192 1.115-1.001-0.526c-0.072-0.039-0.158-0.062-0.249-0.062s-0.177 0.023-0.252 0.064l0.003-0.001-1.001 0.526 0.192-1.115c0.032-0.174-0.027-0.347-0.151-0.471l-0.814-0.791 1.12-0.16c0.174-0.027 0.325-0.137 0.402-0.293l0.503-1.015 0.498 1.015c0.078 0.155 0.229 0.265 0.402 0.293l1.12 0.16-0.809 0.791zM26.135 20.526h-1.070v1.065h1.070v-1.070zM26.135 22.656h-1.070v1.065h1.070v-1.065zM27.2 21.591h-1.065v1.065h1.065v-1.065zM25.065 21.591h-1.065v1.065h1.065v-1.065zM22.4 26.391h-1.065v1.065h1.065v-1.065zM22.4 28.526h-1.065v1.065h1.065v-1.070zM23.465 27.456h-1.065v1.065h1.065v-1.065zM21.335 27.456h-1.070v1.065h1.070v-1.065zM16 24.256h-1.065v1.065h1.065v-1.065zM16 26.391h-1.065v1.065h1.065v-1.065zM17.065 25.326h-1.065v1.065h1.065v-1.070zM14.935 25.326h-1.070v1.065h1.070v-1.070zM5.865 6.126h-1.065v1.065h1.065v-1.070zM5.865 8.256h-1.065v1.065h1.065v-1.065zM6.935 7.191h-1.070v1.065h1.070v-1.065zM4.8 7.191h-1.065v1.065h1.065v-1.065z"></path>
<path fill="#212121" d="M24.713 14.158c-0.28-0.376-0.699-0.636-1.179-0.703l-0.009-0.001c-0.076-0.012-0.164-0.018-0.253-0.018-0.411 0-0.789 0.139-1.090 0.373l0.004-0.003-1.248 0.96-1.902 1.417-1.358-0.539c2.423-1.088 4.114-3.506 4.114-6.322 0-3.822-3.122-6.93-6.962-6.93s-6.958 3.109-6.958 6.93c0 0.002 0 0.004 0 0.007 0 1.397 0.418 2.697 1.136 3.781l-0.016-0.025-2.77-0.027-0.023 0.005c-0.056 0.001-0.11 0.013-0.158 0.033l0.003-0.001-0.037 0.014-0.023 0.005-3.232 1.6-1.893 0.91c-0.506 0.32-0.837 0.877-0.837 1.511 0 0.985 0.798 1.783 1.783 1.783 0.303 0 0.588-0.075 0.838-0.209l-0.010 0.005 1.385-0.736 2.263-1.17 1.358-0.009-6.779 6.757c-0.306 0.299-0.496 0.716-0.496 1.177s0.19 0.878 0.495 1.177l0 0c0.302 0.302 0.719 0.488 1.179 0.488s0.878-0.187 1.179-0.488v0l1.307-1.312 1.742-1.298 0.901 0.896-1.76 1.755-1.339 1.33c-0.307 0.299-0.498 0.717-0.498 1.179s0.191 0.88 0.498 1.179l0 0c0.302 0.302 0.719 0.488 1.179 0.488s0.878-0.187 1.179-0.488v0l3.483-3.47 1.015-1.006h-0.005l0.018-0.018 5.166-5.659 3.474 0.498c0.019 0.003 0.041 0.004 0.063 0.004 0.071 0 0.139-0.015 0.201-0.042l-0.003 0.001 0.050-0.023c0.018-0.009 0.041-0.014 0.059-0.027l3.214-2.13 0.027-0.032 0.041-0.023 1.271-1.193c0.347-0.326 0.562-0.788 0.562-1.3 0-0.401-0.132-0.771-0.355-1.068l0.003 0.005zM2.13 17.769c-0.109 0.071-0.243 0.113-0.386 0.113-0.396 0-0.716-0.321-0.716-0.716 0-0.252 0.13-0.474 0.327-0.602l0.003-0.002 1.317-0.631 0.315 0.923 0.133 0.389-0.992 0.526zM5.627 15.941l-1.55 0.8-0.256-0.741-0.183-0.535 2.030-1.006-0.041 1.486zM20.727 9.326c0 0.919-0.219 1.783-0.599 2.56l-4.183-1.897c-0.042-0.576-0.341-1.074-0.78-1.386l-0.006-0.004 1.463-4.859c2.377 0.754 4.105 2.971 4.105 5.586zM8.937 9.326c0.011-3.243 2.643-5.868 5.888-5.868 0.266 0 0.528 0.018 0.784 0.052l-0.030-0.003-1.435 4.754-0.055-0.005c0 0 0 0-0 0-1.032 0-1.869 0.834-1.874 1.865v0.001c0.012 1.026 0.847 1.852 1.874 1.852 0.687 0 1.287-0.369 1.614-0.92l0.005-0.009 3.858 1.755c-1.085 1.458-2.804 2.393-4.741 2.393-3.245 0-5.878-2.624-5.893-5.866v-0.001zM14.894 10.126c0 0.446-0.361 0.807-0.807 0.807s-0.807-0.361-0.807-0.807v0c0.033-0.42 0.381-0.748 0.807-0.748s0.774 0.328 0.807 0.746l0 0.003zM2.469 25.147c-0.233 0.233-0.617 0.229-0.855 0-0.109-0.108-0.177-0.257-0.177-0.423s0.068-0.315 0.177-0.423l0.96-0.96 0.855 0.85-0.965 0.951zM5.682 28.878c-0.233 0.238-0.617 0.238-0.855 0-0.108-0.108-0.174-0.256-0.174-0.421s0.067-0.313 0.174-0.421v0l0.96-0.96 0.855 0.846-0.96 0.96zM9.166 25.413l-1.769 1.76-0.85-0.85 1.765-1.751c0.041-0.046 0.064-0.091 0.091-0.137l0.023-0.046c0.018-0.037 0.023-0.082 0.027-0.123 0-0.027 0.014-0.046 0.014-0.073 0-0.037-0.014-0.073-0.018-0.105l-0.018-0.096c-0.023-0.050-0.055-0.091-0.091-0.137l-0.027-0.041-1.609-1.6c-0.014-0.018-0.037-0.023-0.055-0.037-0.032-0.023-0.059-0.046-0.091-0.059-0.026-0.012-0.056-0.023-0.088-0.031l-0.003-0.001c-0.029-0.010-0.063-0.018-0.098-0.023l-0.003-0c-0.032 0-0.064 0-0.096 0.009-0.037 0-0.069 0.009-0.105 0.018-0.035 0.012-0.065 0.027-0.093 0.046l0.001-0.001c-0.023 0.009-0.046 0.014-0.064 0.027l-1.774 1.326-0.901-0.901 2.4-2.386 4.361 4.293-0.928 0.914zM15.982 18.395h-0.046c-0.007-0-0.016-0.001-0.025-0.001-0.137 0-0.262 0.052-0.355 0.138l0-0-0.041 0.032-4.699 5.143-4.325-4.251 2.834-2.821c0.098-0.097 0.158-0.231 0.158-0.379 0-0.295-0.239-0.535-0.535-0.535-0.002 0-0.005 0-0.007 0h0l-2.217 0.014 0.027-1.609 3.104 0.027c1.263 1.296 3.026 2.099 4.977 2.099 0.455 0 0.899-0.044 1.33-0.127l-0.044 0.007c0.037 0.032 0.078 0.064 0.128 0.087l2.409 0.96 0.151 0.759 0.183 0.882-3.008-0.425zM20.023 18.574l-0.311-1.559 1.445-1.079 0.379 0.503 0.567 0.75-2.080 1.385zM23.781 15.739l-0.841 0.786-0.928-1.234 0.827-0.64c0.122-0.093 0.276-0.149 0.443-0.149 0.037 0 0.074 0.003 0.11 0.008l-0.004-0.001c0.352 0.050 0.62 0.349 0.62 0.711 0 0.206-0.087 0.392-0.226 0.523l-0 0z"></path>
<path fill="#212121" d="M13.6 18.546l-2.139-2.135c-0.097-0.096-0.23-0.156-0.377-0.156s-0.28 0.059-0.377 0.156l0-0-2.144 2.135c-0.096 0.097-0.156 0.23-0.156 0.377s0.059 0.28 0.156 0.377l-0-0 2.144 2.135c0.097 0.096 0.23 0.156 0.377 0.156s0.28-0.059 0.377-0.156l-0 0 2.139-2.135c0.096-0.097 0.156-0.23 0.156-0.377s-0.059-0.28-0.156-0.377l0 0zM11.086 20.302l-1.394-1.376 1.385-1.381 1.39 1.381-1.39 1.381zM17.166 5.074l-0.261 1.033c0.073 0.018 1.737 0.453 1.737 2.149h1.070c0-2.016-1.669-2.967-2.546-3.186zM19.712 9.326h-1.070v1.065h1.070v-1.070z"></path>
</svg>
