<svg xmlns="http://www.w3.org/2000/svg" fill="none" viewBox="0 0 106 60">
  <path fill="#AFB1B8" d="M26.76 44.74c.24.27.37.62.36.97.02.23-.03.46-.13.68-.1.21-.24.4-.43.56-.48.32-1.06.48-1.66.45H22v-6.2h2.84a2.6 2.6 0 0 1 1.58.42 1.4 1.4 0 0 1 .55 1.16c.02.34-.1.67-.33.94-.22.25-.52.42-.86.49.38.06.73.25.98.53Zm-3.4-.94h1.2c.28.02.56-.05.78-.2a.6.6 0 0 0 .2-.28c.05-.1.07-.22.06-.33a.7.7 0 0 0-.05-.33.76.76 0 0 0-.2-.27 1.25 1.25 0 0 0-.8-.21h-1.2v1.62Zm2.1 2.38a.8.8 0 0 0 .29-.63.72.72 0 0 0-.07-.35.79.79 0 0 0-.23-.29 1.34 1.34 0 0 0-.82-.22h-1.28v1.7h1.3c.28.02.57-.06.8-.22Zm7.11 1.22L31 44.98h-.6v2.42h-1.36v-6.2h2.58a2.7 2.7 0 0 1 1.8.53 1.86 1.86 0 0 1 .2 2.56c-.33.34-.77.56-1.24.63l1.68 2.48h-1.48Zm-2.18-3.27h1.12c.77 0 1.16-.3 1.16-.93a.85.85 0 0 0-.07-.38.92.92 0 0 0-.22-.32 1.28 1.28 0 0 0-.87-.25h-1.13l.01 1.88Zm9.62 2.02H37.3l-.48 1.25h-1.43l2.5-6.13h1.54l2.48 6.13h-1.43L40 46.15Zm-.36-.94-1-2.61-.99 2.61h1.99Zm9.67 2.19h-1.35l-3.03-4.21v4.2H43.6v-6.18h1.35l3.03 4.23v-4.23h1.35v6.19Zm7.71-1.49c-.28.47-.7.85-1.22 1.1a4.4 4.4 0 0 1-1.9.39h-2.4v-6.2h2.4a4.4 4.4 0 0 1 1.9.39c.52.24.94.61 1.22 1.08a3.35 3.35 0 0 1 0 3.24Zm-1.54-.14c.38-.41.6-.94.6-1.48s-.22-1.07-.6-1.48a2.49 2.49 0 0 0-1.7-.52h-.93v4h.94c.61.04 1.22-.15 1.69-.52Zm-14.63-39s17.43 6.02 17.06 14.75v14.75S40.5 30.24 40.86 21.52V6.77Zm32.6 26.05a25.3 25.3 0 0 1 11.08-3.74v-4.62a22.4 22.4 0 0 0-11.08 8.36Z"/>
  <path fill="#AFB1B8" d="M71.48 34.2a23.1 23.1 0 0 1 13.06-10.7V10.17S59.7 18.78 60.23 31.2v21s1.1-.38 2.85-1.1c0-.68 0-1.35.08-2.03a21.28 21.28 0 0 1 8.32-14.86Z"/>
  <path fill="#AFB1B8" d="M69.12 42.01c.13-1.45.42-2.9.87-4.3a19.43 19.43 0 0 0-5.26 12.7c1.41-.63 3.05-1.4 4.78-2.31-.44-2-.57-4.05-.39-6.09Zm.98.08a19.5 19.5 0 0 0 .31 5.5c6.79-3.71 14.41-9.45 14.12-16.4v-.6a23.2 23.2 0 0 0-12.91 5.52 19.26 19.26 0 0 0-1.51 5.98Z"/>
</svg>
