<!-- Generated by IcoMoon.io -->
<svg version="1.1" xmlns="http://www.w3.org/2000/svg" width="32" height="32" viewBox="0 0 32 32">
<title>antenna-1</title>
<path fill="#212121" d="M30.775 22.098l-8.443-8.503 0.937-4.617c0.242 0.091 0.498 0.142 0.759 0.146h0.005c0.006 0 0.014 0 0.022 0 1.192 0 2.158-0.966 2.158-2.158s-0.966-2.158-2.158-2.158c-1.192 0-2.158 0.966-2.158 2.158 0 0.259 0.046 0.507 0.129 0.737l-0.005-0.015-4.955 0.603-8.091-8.133c-0.097-0.098-0.231-0.159-0.379-0.16h-0c-0.137 0-0.274 0.055-0.37 0.155l-1.513 1.504c-0.21 0.21-0.21 0.549 0 0.754l0.814 0.823c-1.143 2.062-1.816 4.522-1.816 7.14 0 4.106 1.656 7.824 4.336 10.525l-0.001-0.001c0.046 0.046 0.091 0.073 0.146 0.101-0.032 0.183-0.050 0.366-0.050 0.549v6.185h-6.4c0 0 0 0 0 0-1.473 0-2.667 1.193-2.67 2.665v1.065c0 0.297 0.238 0.535 0.535 0.535h24.535c0.293 0 0.53-0.238 0.53-0.535v-1.065c-0.003-1.471-1.194-2.663-2.665-2.665h-6.4v-2.743c0.915 0.2 1.966 0.315 3.043 0.315 2.581 0 5.008-0.659 7.123-1.817l-0.077 0.039 0.818 0.823c0.095 0.1 0.229 0.161 0.377 0.161 0.146 0 0.278-0.060 0.373-0.157l1.509-1.509c0.21-0.206 0.21-0.544 0-0.75zM23.278 6.235c0.193-0.192 0.458-0.311 0.752-0.311 0.588 0 1.065 0.477 1.065 1.065s-0.476 1.064-1.063 1.065h-0c-0.001 0-0.001 0-0.002 0-0.588 0-1.065-0.477-1.065-1.065 0-0.297 0.122-0.566 0.318-0.759l0-0zM22.025 9.737l-0.599 2.944-1.175-1.179 1.774-1.765zM21.417 8.837l-1.92 1.906-1.486-1.49 3.406-0.416zM24.005 28.8c0.884 0 1.6 0.716 1.6 1.6v0 0.535h-23.465v-0.535c0-0.884 0.716-1.6 1.6-1.6v0h20.261zM16.539 26.665v1.070h-5.339v-1.070h5.335zM11.2 25.6v-4.055c0-1.294 1.198-2.345 2.665-2.345 1.472 0 2.67 1.051 2.67 2.345v4.055h-5.335zM17.6 23.904v-2.359c0-1.879-1.673-3.41-3.735-3.41-0.018-0-0.040-0-0.062-0-1.351 0-2.537 0.705-3.211 1.768l-0.009 0.016c-2.359-2.481-3.809-5.845-3.809-9.548 0-2.314 0.567-4.496 1.569-6.415l-0.036 0.077 18.606 18.711c-1.822 0.946-3.978 1.501-6.264 1.501-1.080 0-2.132-0.124-3.141-0.358l0.093 0.018zM28.891 23.218l-0.754-0.754-20.302-20.425 0.754-0.75 21.061 21.179-0.759 0.75z"></path>
<path fill="#2196f3" d="M13.874 20.265c-0.001 0-0.003 0-0.005 0-0.884 0-1.6 0.716-1.6 1.6 0 0.882 0.714 1.597 1.595 1.6h0.005c0.001 0 0.001 0 0.002 0 0.884 0 1.6-0.716 1.6-1.6s-0.715-1.599-1.598-1.6h-0zM14.249 22.245c-0.097 0.096-0.23 0.155-0.377 0.155-0.295 0-0.535-0.239-0.535-0.535s0.238-0.533 0.532-0.535h0c0.294 0.001 0.533 0.24 0.533 0.535 0 0.148-0.060 0.283-0.158 0.379l-0 0z"></path>
</svg>
