<!-- Generated by IcoMoon.io -->
<svg version="1.1" xmlns="http://www.w3.org/2000/svg" width="57" height="32" viewBox="0 0 57 32">
<title>client-2</title>
<path fill="#afb1b8" d="M26.725 3.163h-0.069l-0.336-0.011h-0.245c-0.015-0-0.034-0-0.052-0-0.226 0-0.45 0.006-0.672 0.017l0.031-0.001c-1.941 0.107-3.84 0.597-5.605 1.429l-0.229 0.112v11.808l0.539-0.181c1.729-0.623 3.724-0.994 5.802-1.019l0.011-0v1.552l-0.565 0.016h-0.043c-2.689 0.149-5.175 0.892-7.369 2.098l0.089-0.045v-15.152c1.196-0.71 2.58-1.288 4.045-1.662l0.11-0.024c1.172-0.314 2.518-0.497 3.907-0.501h0.232c0.973 0.003 1.916 0.129 2.814 0.364l-0.078-0.017v1.531c-0.544-0.134-1.188-0.236-1.848-0.286l-0.040-0.002h-0.037c-0.133-0.011-0.267-0.027-0.389-0.027zM29.413 4.725c0.301 0.019 0.653 0.030 1.008 0.030 1.474 0 2.904-0.19 4.266-0.547l-0.117 0.026c1.503-0.383 2.82-0.911 4.045-1.586l-0.087 0.044v14.875c-1.196 0.711-2.579 1.291-4.044 1.667l-0.11 0.024c-1.28 0.325-2.592 0.496-3.909 0.501-0.027 0-0.059 0-0.091 0-1.023 0-2.015-0.128-2.963-0.37l0.083 0.018v-14.971c0.553 0.135 1.209 0.238 1.881 0.286l0.039 0.002zM36.987 4.843l-0.539 0.181c-1.791 0.645-3.858 1.017-6.011 1.017-0.337 0-0.673-0.009-1.006-0.027l0.046 0.002-0.437-0.027v12.144l0.373 0.032c0.309 0.024 0.669 0.037 1.031 0.037 1.263 0 2.488-0.163 3.655-0.47l-0.1 0.022c1.056-0.271 1.972-0.612 2.84-1.036l-0.088 0.039 0.235-0.107v-11.808z"></path>
<path fill="#afb1b8" d="M19.061 24.112c-0.145-0.148-0.348-0.241-0.572-0.241-0.011 0-0.022 0-0.032 0.001l0.002-0c-0.117 0-0.235 0.021-0.347 0.064-0.3 0.12-0.508 0.408-0.508 0.745 0 0.014 0 0.028 0.001 0.041l-0-0.002v2.027c0 0.139 0.021 0.283 0.080 0.411 0.053 0.107 0.117 0.197 0.203 0.272 0.080 0.069 0.176 0.117 0.277 0.144s0.203 0.043 0.304 0.043c0.464-0.009 0.837-0.388 0.837-0.853 0-0 0-0 0-0v0-0.224h-0.533v0.176c0.005 0.064 0 0.128-0.027 0.181-0.017 0.046-0.042 0.085-0.075 0.117v0c-0.060 0.046-0.136 0.073-0.218 0.075h-0c-0.011 0.002-0.023 0.002-0.036 0.002-0.088 0-0.166-0.043-0.215-0.108l-0-0.001c-0.047-0.073-0.075-0.162-0.075-0.257 0-0.005 0-0.010 0-0.015l-0 0.001v-1.888c0-0.107 0.021-0.208 0.069-0.299 0.048-0.075 0.131-0.124 0.226-0.124 0.011 0 0.021 0.001 0.032 0.002l-0.001-0c0.003-0 0.006-0 0.009-0 0.092 0 0.173 0.044 0.225 0.111l0 0.001c0.057 0.072 0.091 0.163 0.091 0.263 0 0.001 0 0.003-0 0.004v-0 0.181h0.523v-0.208c0-0.002 0-0.005 0-0.007 0-0.243-0.091-0.465-0.241-0.634l0.001 0.001zM22.203 24.091c-0.162-0.136-0.374-0.219-0.604-0.219-0.112 0-0.22 0.020-0.32 0.055l0.007-0.002c-0.107 0.037-0.197 0.091-0.277 0.16-0.091 0.085-0.16 0.181-0.208 0.288-0.053 0.123-0.080 0.256-0.075 0.395v1.936c-0.005 0.139 0.021 0.272 0.075 0.4 0.048 0.107 0.117 0.197 0.208 0.267 0.080 0.080 0.171 0.139 0.277 0.176 0.094 0.035 0.202 0.055 0.315 0.055s0.221-0.020 0.321-0.057l-0.006 0.002c0.329-0.114 0.562-0.421 0.562-0.783 0-0.019-0.001-0.038-0.002-0.057l0 0.003v-1.941c0.001-0.011 0.001-0.024 0.001-0.038 0-0.252-0.107-0.48-0.278-0.639l-0-0zM21.957 26.704c0.001 0.009 0.001 0.019 0.001 0.029 0 0.1-0.041 0.189-0.108 0.253l-0 0c-0.067 0.055-0.153 0.089-0.248 0.089s-0.181-0.034-0.249-0.090l0.001 0c-0.067-0.063-0.108-0.153-0.108-0.252 0-0.011 0-0.022 0.002-0.033l-0 0.001v-1.936c-0.001-0.009-0.001-0.020-0.001-0.031 0-0.099 0.041-0.188 0.108-0.251l0-0c0.067-0.055 0.153-0.089 0.248-0.089s0.181 0.034 0.249 0.090l-0.001-0c0.067 0.063 0.108 0.153 0.108 0.252 0 0.011-0 0.022-0.002 0.033l0-0.001v1.936zM26.331 27.573v-3.68h-0.512l-0.667 1.947h-0.011l-0.672-1.947h-0.501v3.675h0.523v-2.24h0.011l0.512 1.584h0.267l0.517-1.579h0.005v2.235h0.528zM29.312 24.16c-0.080-0.096-0.181-0.16-0.299-0.203-0.109-0.037-0.234-0.059-0.365-0.059-0.005 0-0.010 0-0.015 0h-0.778v3.675h0.523v-1.44h0.267c0.165 0.011 0.325-0.021 0.475-0.096 0.212-0.132 0.361-0.347 0.405-0.597l0.001-0.005c0.021-0.124 0.032-0.266 0.032-0.411 0-0.187-0.020-0.369-0.057-0.545l0.003 0.017c-0.036-0.134-0.103-0.249-0.192-0.342l0 0zM29.045 25.28c-0.005 0.069-0.024 0.133-0.055 0.189l0.001-0.003c-0.032 0.053-0.075 0.107-0.133 0.128-0.068 0.034-0.148 0.053-0.233 0.053-0.004 0-0.009-0-0.013-0h-0.239v-1.253h0.267c0.005-0 0.012-0 0.018-0 0.080 0 0.157 0.018 0.225 0.050l-0.003-0.001c0.053 0.027 0.096 0.075 0.123 0.133 0.026 0.060 0.042 0.129 0.043 0.202v0.502zM31.787 23.899h-0.427l-0.8 3.675h0.523l0.155-0.789h0.709l0.16 0.789h0.517l-0.827-3.675zM31.307 26.283l0.261-1.333h0.005l0.256 1.333h-0.523zM35.173 26.112h-0.011l-0.789-2.213h-0.501v3.675h0.523v-2.208h0.011l0.795 2.208h0.491v-3.68h-0.523v2.213zM38.373 23.899l-0.427 1.461h-0.005l-0.427-1.461h-0.549l0.72 2.123v1.547h0.523v-1.547l0.72-2.123h-0.555zM17.6 28.608h0.251v0.709h0.171v-0.709h0.251v-0.144h-0.672v0.144zM19.723 28.464l-0.331 0.853h0.181l0.069-0.192h0.341l0.069 0.192h0.187l-0.336-0.853h-0.181zM19.696 28.981l0.112-0.32 0.117 0.32h-0.229zM21.813 29.003h0.203v0.107c-0.055 0.046-0.125 0.073-0.202 0.075h-0c-0.004 0-0.009 0-0.014 0-0.067 0-0.128-0.031-0.167-0.080l-0-0c-0.040-0.057-0.065-0.128-0.065-0.205 0-0.007 0-0.013 0.001-0.020l-0 0.001c0-0.187 0.080-0.283 0.245-0.283 0.005-0 0.011-0.001 0.017-0.001 0.083 0 0.154 0.056 0.175 0.133l0 0.001 0.171-0.032c-0.037-0.165-0.16-0.251-0.363-0.251-0.005-0-0.010-0-0.016-0-0.109 0-0.208 0.041-0.283 0.107l0-0c-0.077 0.076-0.124 0.18-0.124 0.296 0 0.012 0 0.024 0.002 0.036l-0-0.002c0 0.117 0.032 0.235 0.107 0.32 0.076 0.079 0.183 0.129 0.301 0.129 0.009 0 0.017-0 0.026-0.001l-0.001 0c0.001 0 0.003 0 0.004 0 0.138 0 0.264-0.053 0.359-0.139l-0 0v-0.336h-0.373v0.144zM23.957 28.464h-0.171v0.853h0.597v-0.144h-0.427v-0.709zM25.771 28.464h-0.176v0.853h0.176v-0.853zM27.541 29.035l-0.352-0.571h-0.165v0.853h0.16v-0.555l0.341 0.555h0.171v-0.853h-0.16v0.571zM29.141 28.944h0.427v-0.144h-0.427v-0.192h0.453v-0.144h-0.629v0.853h0.651v-0.144h-0.48v-0.229zM33.019 28.8h-0.336v-0.336h-0.171v0.853h0.171v-0.373h0.336v0.373h0.171v-0.853h-0.171v0.336zM34.629 28.944h0.427v-0.144h-0.427v-0.192h0.459v-0.144h-0.629v0.853h0.645v-0.144h-0.475v-0.229zM36.811 28.944c0.149-0.027 0.224-0.107 0.224-0.24 0.001-0.007 0.001-0.016 0.001-0.024 0-0.066-0.032-0.125-0.081-0.162l-0.001-0c-0.064-0.034-0.141-0.054-0.222-0.054-0.010 0-0.020 0-0.030 0.001l0.001-0h-0.363v0.853h0.171v-0.357h0.032c0.037 0 0.075 0.005 0.107 0.021 0.027 0.016 0.053 0.037 0.064 0.064l0.187 0.267h0.203l-0.107-0.16c-0.043-0.085-0.107-0.16-0.187-0.213zM36.64 28.827h-0.128v-0.213h0.133c0.014-0.001 0.029-0.002 0.045-0.002 0.047 0 0.092 0.007 0.134 0.019l-0.003-0.001c0.027 0.020 0.044 0.051 0.044 0.086 0 0.038-0.019 0.071-0.049 0.090l-0 0c-0.043 0.014-0.093 0.022-0.145 0.022-0.011 0-0.021-0-0.032-0.001l0.001 0zM38.459 28.944h0.427v-0.144h-0.427v-0.192h0.459v-0.144h-0.629v0.853h0.645v-0.144h-0.475v-0.229z"></path>
</svg>
