<!-- Generated by IcoMoon.io -->
<svg version="1.1" xmlns="http://www.w3.org/2000/svg" width="57" height="32" viewBox="0 0 57 32">
<title>client-4</title>
<path fill="#2196f3" d="M12.88 11.253c-1.28 0-2.32 0.923-2.32 2.059 0 1.141 1.040 2.059 2.315 2.059 1.28 0 2.32-0.917 2.32-2.059 0-1.136-1.040-2.059-2.315-2.059zM29.973 10.597c-0.027-1.684-0.783-3.186-1.966-4.207l-0.007-0.006c-1.248-1.084-2.889-1.744-4.684-1.744-0.016 0-0.033 0-0.049 0h0.003c-1.776 0-3.483 0.629-4.736 1.749-1.191 1.025-1.948 2.526-1.973 4.204l-0 0.004v8.704s13.413-1.328 13.413-8.704zM5.867 22.16c0 1.099 0.496 2.149 1.371 2.928 0.869 0.756 2.013 1.216 3.263 1.216 0.010 0 0.019-0 0.029-0h-0.001c1.237 0 2.421-0.437 3.296-1.216 0.827-0.714 1.353-1.758 1.371-2.925l0-0.003v-6.053s-9.328 0.923-9.328 6.053zM10.528 23.243c-0.24 0-0.48-0.059-0.677-0.181-0.195-0.114-0.348-0.28-0.445-0.479l-0.003-0.007c-0.059-0.122-0.093-0.265-0.093-0.416 0-0.076 0.009-0.149 0.025-0.22l-0.001 0.007c0.048-0.213 0.16-0.4 0.336-0.555 0.17-0.15 0.382-0.255 0.616-0.297l0.008-0.001c0.235-0.037 0.48-0.016 0.704 0.064s0.416 0.219 0.549 0.4c0.127 0.166 0.204 0.377 0.204 0.606 0 0.306-0.137 0.579-0.352 0.763l-0.001 0.001c-0.223 0.199-0.519 0.32-0.843 0.32-0.009 0-0.019-0-0.028-0l0.001 0zM19.957 22.645h-0.901v0.933h-0.469v-2.277h1.483v0.379h-1.013v0.587h0.901v0.379zM22.208 22.491c0 0.224-0.037 0.421-0.117 0.587-0.141 0.317-0.453 0.534-0.816 0.534-0.011 0-0.022-0-0.034-0.001l0.002 0c-0.009 0-0.021 0.001-0.032 0.001-0.362 0-0.674-0.212-0.819-0.518l-0.002-0.006c-0.074-0.161-0.118-0.35-0.118-0.549 0-0.013 0-0.026 0.001-0.039l-0 0.002v-0.101c0-0.229 0.037-0.427 0.123-0.592 0.146-0.317 0.461-0.534 0.826-0.534 0.008 0 0.015 0 0.023 0l-0.001-0c0.187 0 0.357 0.048 0.501 0.139 0.149 0.091 0.267 0.224 0.341 0.395 0.085 0.165 0.123 0.363 0.123 0.587v0.107zM21.733 22.384c0-0.235-0.043-0.416-0.128-0.539-0.076-0.113-0.203-0.187-0.347-0.187-0.005 0-0.011 0-0.016 0l0.001-0c-0.16 0-0.283 0.059-0.368 0.181s-0.128 0.304-0.128 0.539v0.112c0 0.235 0.043 0.411 0.128 0.539s0.213 0.192 0.373 0.192c0.155 0 0.272-0.059 0.357-0.181s0.128-0.304 0.128-0.539v-0.112zM23.728 22.981c0-0.091-0.032-0.16-0.091-0.203-0.098-0.064-0.212-0.115-0.333-0.147l-0.008-0.002c-0.16-0.053-0.288-0.107-0.384-0.16-0.256-0.139-0.389-0.325-0.389-0.56 0-0.128 0.037-0.235 0.107-0.331s0.165-0.171 0.299-0.229c0.125-0.052 0.27-0.083 0.422-0.083 0.162 0 0.316 0.034 0.454 0.096l-0.007-0.003c0.24 0.101 0.405 0.334 0.405 0.606 0 0.003 0 0.005-0 0.007v-0h-0.469c0-0.107-0.037-0.187-0.101-0.24-0.069-0.057-0.157-0.091-0.254-0.091-0.008 0-0.016 0-0.024 0.001l0.001-0c-0.007-0-0.016-0.001-0.025-0.001-0.091 0-0.174 0.028-0.244 0.076l0.001-0.001c-0.058 0.042-0.096 0.11-0.096 0.187 0 0.002 0 0.004 0 0.006v-0c0 0.075 0.037 0.133 0.112 0.187 0.075 0.048 0.187 0.096 0.331 0.139 0.267 0.080 0.459 0.181 0.587 0.299 0.117 0.117 0.176 0.267 0.176 0.443 0 0.197-0.069 0.352-0.219 0.464s-0.352 0.171-0.603 0.171c-0.004 0-0.010 0-0.015 0-0.168 0-0.328-0.035-0.473-0.099l0.008 0.003c-0.261-0.098-0.443-0.346-0.443-0.635 0-0.005 0-0.011 0-0.016v0.001h0.469c0 0.251 0.155 0.373 0.453 0.373 0.107 0 0.197-0.021 0.261-0.064 0.059-0.053 0.091-0.112 0.091-0.192zM26.235 21.68h-0.699v1.899h-0.469v-1.899h-0.693v-0.373h1.856v0.373zM27.867 22.587h-0.896v0.613h1.056v0.373h-1.525v-2.272h1.52v0.379h-1.051v0.544h0.896v0.368zM29.147 22.747h-0.373v0.832h-0.475v-2.277h0.848c0.267 0 0.475 0.059 0.619 0.181 0.149 0.117 0.219 0.288 0.219 0.507 0 0.16-0.032 0.283-0.101 0.389-0.064 0.107-0.165 0.187-0.304 0.245l0.491 0.933v0.021h-0.501l-0.427-0.832zM28.773 22.363h0.373c0.117 0 0.213-0.027 0.272-0.085 0.060-0.058 0.097-0.139 0.097-0.229 0-0.008-0-0.015-0.001-0.022l0 0.001c0-0.107-0.027-0.192-0.091-0.251-0.059-0.064-0.155-0.096-0.277-0.096h-0.373v0.683zM31.611 22.773v0.8h-0.469v-2.272h0.885c0.171 0 0.32 0.032 0.453 0.096 0.128 0.059 0.229 0.149 0.299 0.267 0.069 0.112 0.107 0.245 0.107 0.389 0 0.224-0.080 0.4-0.235 0.533-0.149 0.123-0.363 0.187-0.629 0.187h-0.411zM31.611 22.4h0.416c0.123 0 0.219-0.032 0.283-0.091 0.069-0.059 0.101-0.144 0.101-0.251 0-0.003 0-0.007 0-0.011 0-0.099-0.039-0.189-0.102-0.256l0 0c-0.066-0.066-0.158-0.107-0.259-0.107-0.003 0-0.005 0-0.008 0h-0.432v0.709zM34.576 22.592h-0.901v0.608h1.056v0.373h-1.525v-2.272h1.52v0.379h-1.051v0.544h0.901v0.368zM36.752 21.685h-0.699v1.893h-0.469v-1.899h-0.688v-0.373h1.856v0.373zM38.389 22.592h-0.907v0.608h1.061v0.373h-1.531v-2.272h1.52v0.379h-1.040v0.544h0.901v0.368zM39.659 22.747h-0.373v0.832h-0.469v-2.277h0.848c0.267 0 0.48 0.059 0.624 0.181 0.144 0.117 0.213 0.288 0.213 0.507 0 0.16-0.032 0.283-0.096 0.389-0.069 0.107-0.171 0.187-0.309 0.245l0.496 0.933v0.021h-0.507l-0.427-0.832zM39.285 22.363h0.379c0.117 0 0.213-0.027 0.277-0.085 0.060-0.058 0.097-0.139 0.097-0.229 0-0.008-0-0.015-0.001-0.022l0 0.001c0-0.107-0.032-0.192-0.096-0.251-0.053-0.064-0.149-0.096-0.277-0.096h-0.373v0.683zM42.043 22.981c0-0.091-0.032-0.16-0.096-0.203-0.097-0.063-0.208-0.114-0.328-0.147l-0.008-0.002c-0.16-0.053-0.293-0.107-0.384-0.16-0.261-0.139-0.389-0.325-0.389-0.56 0-0.128 0.032-0.235 0.107-0.331 0.064-0.096 0.165-0.171 0.293-0.229 0.126-0.051 0.272-0.080 0.424-0.080 0.163 0 0.317 0.033 0.458 0.094l-0.008-0.003c0.128 0.053 0.224 0.139 0.293 0.251 0.069 0.107 0.107 0.229 0.107 0.363h-0.469c0-0.107-0.032-0.187-0.096-0.24-0.069-0.057-0.157-0.091-0.254-0.091-0.008 0-0.016 0-0.024 0.001l0.001-0c-0.007-0-0.016-0.001-0.025-0.001-0.091 0-0.175 0.028-0.244 0.076l0.001-0.001c-0.058 0.042-0.096 0.11-0.096 0.187 0 0.002 0 0.004 0 0.006v-0c0 0.075 0.037 0.133 0.107 0.187 0.080 0.048 0.187 0.096 0.336 0.139 0.267 0.080 0.459 0.181 0.581 0.299s0.181 0.267 0.181 0.443c0 0.197-0.075 0.352-0.224 0.464s-0.347 0.171-0.603 0.171c-0.004 0-0.010 0-0.015 0-0.168 0-0.328-0.035-0.473-0.099l0.008 0.003c-0.261-0.098-0.443-0.346-0.443-0.635 0-0.005 0-0.011 0-0.016v0.001h0.475c0 0.251 0.149 0.373 0.448 0.373 0.008 0 0.017 0.001 0.026 0.001 0.089 0 0.172-0.024 0.243-0.066l-0.002 0.001c0.059-0.053 0.091-0.112 0.091-0.192z"></path>
</svg>
