<!-- Generated by IcoMoon.io -->
<svg version="1.1" xmlns="http://www.w3.org/2000/svg" width="32" height="32" viewBox="0 0 32 32">
<title>linkedin-1</title>
<path fill="#afb1b8" d="M32 32v-11.744c0-5.728-1.232-10.16-7.952-10.16-0.076-0.003-0.166-0.005-0.256-0.005-2.555 0-4.788 1.376-5.999 3.428l-0.018 0.032h-0.096v-2.912h-6.368v21.36h6.64v-10.576c0-2.784 0.528-5.488 3.968-5.488 3.408 0 3.456 3.184 3.456 5.664v10.4h6.624zM0.528 10.64h6.64v21.36h-6.64v-21.36zM3.84 0c-2.121 0-3.84 1.719-3.84 3.84v0c-0 0.005-0 0.010-0 0.016 0 2.127 1.715 3.854 3.838 3.872h0.002c2.128 0 3.84-1.76 3.84-3.888 0-2.121-1.719-3.84-3.84-3.84v0z"></path>
</svg>
